<svg xmlns="http://www.w3.org/2000/svg" viewBox="0 0 800 500" role="img" aria-label="简单的神经网络示意图">
  <rect width="800" height="500" fill="#f8f6f1"/>
  <g stroke="#c9d2b9" stroke-width="2"><line x1="190" y1="150" x2="400" y2="110"/><line x1="190" y1="150" x2="400" y2="210"/><line x1="190" y1="150" x2="400" y2="310"/><line x1="190" y1="150" x2="400" y2="410"/><line x1="190" y1="260" x2="400" y2="110"/><line x1="190" y1="260" x2="400" y2="210"/><line x1="190" y1="260" x2="400" y2="310"/><line x1="190" y1="260" x2="400" y2="410"/><line x1="190" y1="370" x2="400" y2="110"/><line x1="190" y1="370" x2="400" y2="210"/><line x1="190" y1="370" x2="400" y2="310"/><line x1="190" y1="370" x2="400" y2="410"/><line x1="400" y1="110" x2="610" y2="180"/><line x1="400" y1="110" x2="610" y2="330"/><line x1="400" y1="210" x2="610" y2="180"/><line x1="400" y1="210" x2="610" y2="330"/><line x1="400" y1="310" x2="610" y2="180"/><line x1="400" y1="310" x2="610" y2="330"/><line x1="400" y1="410" x2="610" y2="180"/><line x1="400" y1="410" x2="610" y2="330"/></g>
  <circle cx="190" cy="150" r="17" fill="#7d8a6f"/><circle cx="190" cy="260" r="17" fill="#7d8a6f"/><circle cx="190" cy="370" r="17" fill="#7d8a6f"/><circle cx="400" cy="110" r="15" fill="#8b9a7c"/><circle cx="400" cy="210" r="15" fill="#8b9a7c"/><circle cx="400" cy="310" r="15" fill="#8b9a7c"/><circle cx="400" cy="410" r="15" fill="#8b9a7c"/><circle cx="610" cy="180" r="17" fill="#5d6a4e"/><circle cx="610" cy="330" r="17" fill="#5d6a4e"/>
  <text x="190" y="92" text-anchor="middle" font-family="PingFang SC, sans-serif" font-size="17" fill="#6f6a5c">输入层</text><text x="400" y="92" text-anchor="middle" font-family="PingFang SC, sans-serif" font-size="17" fill="#6f6a5c">隐藏层</text><text x="610" y="92" text-anchor="middle" font-family="PingFang SC, sans-serif" font-size="17" fill="#6f6a5c">输出层</text>
</svg>
